# xmcd
#
# Track frame offsets:
#	150
#	10417
#	26195
#	41060
#	54682
#	64180
#	85075
#	95810
#	107347
#	119567
#	136567
#	148397
#	158862
#	167837
#	179780
#	194332
#	210135
#	224777
#
# Disc length: 3162 seconds
#
# Revision: 4
# Processed by: cddbd v1.5.2PL0 Copyright (c) Steve Scherf et al.
# Submitted via: EasyCDDAExtractor 12.0.4.1
#
DISCID=130c5812
DTITLE=Glen Campbell - My Hits and Love Songs
DYEAR=1999
DGENRE=Easy Listening
TTITLE0=What a Wonderful World
TTITLE1=Feelings
TTITLE2=Without You
TTITLE3=Make it Easy on Yourself
TTITLE4=I Believe
TTITLE5=Bridge Over Troubled Water
TTITLE6=Ebb Tide
TTITLE7=It's all in the Game
TTITLE8=Since I Fell For You
TTITLE9=You've Lost That Loving Feeling
TTITLE10=You Don't Have to Say You Love me
TTITLE11=Time in a Bottle
TTITLE12=Let it be Me with Debby Campbell
TTITLE13=Impossible Dream
TTITLE14=And I Love You So
TTITLE15=Rest of the Road
TTITLE16=Only Love Can Break a Heart
TTITLE17=You'll Never Walk Alone
EXTD=YEAR: 1999
EXTT0=
EXTT1=
EXTT2=
EXTT3=
EXTT4=
EXTT5=
EXTT6=
EXTT7=
EXTT8=
EXTT9=
EXTT10=
EXTT11=
EXTT12=
EXTT13=
EXTT14=
EXTT15=
EXTT16=
EXTT17=
PLAYORDER=
